<?xml version="1.0" encoding="UTF-8" standalone="no"?>
<!-- Created with Inkscape (http://www.inkscape.org/) -->

<svg
   xmlns:dc="http://purl.org/dc/elements/1.1/"
   xmlns:cc="http://creativecommons.org/ns#"
   xmlns:rdf="http://www.w3.org/1999/02/22-rdf-syntax-ns#"
   xmlns:svg="http://www.w3.org/2000/svg"
   xmlns="http://www.w3.org/2000/svg"
   version="1.1"
   width="640"
   height="450"
   id="svg2">
  <defs
     id="defs4" />
  <metadata
     id="metadata7">
    <rdf:RDF>
      <cc:Work
         rdf:about="">
        <dc:format>image/svg+xml</dc:format>
        <dc:type
           rdf:resource="http://purl.org/dc/dcmitype/StillImage" />
        <dc:title></dc:title>
      </cc:Work>
    </rdf:RDF>
  </metadata>
  <g
     transform="translate(-58.21875,-55.5)"
     id="layer2"
     style="display:inline">
    <g
       id="layer4"
       style="display:inline">
      <g
         id="g3957"
         style="fill:#fcf7e8;fill-opacity:1">
        <rect
           width="616.57141"
           height="429.92856"
           x="12.495536"
           y="7.576467"
           transform="translate(58.21875,55.5)"
           id="rect4389"
           style="color:#000000;fill:#ffffff;fill-opacity:1;fill-rule:nonzero;stroke:none;stroke-width:0.5;marker:none;visibility:visible;display:inline;overflow:visible;enable-background:accumulate" />
        <path
           d="m 687.28572,134.98948 0,-71.913013 -616.571434,0 0,429.928573 616.571434,0 0,-109.01847 -47.64286,3.73275 c 0.4182,0.31365 -17.96633,-0.9875 -28.48647,-0.56492 -10.52015,0.42258 -35.33102,-2.40192 -48.65639,-5.14936 -16.18226,-3.33648 -11.63485,0.14802 -22.5,-3.92857 -10.86515,-4.0766 -37.14286,-15.71429 -37.14286,-15.71429 -6.57327,-0.22365 -13.10289,0.33851 -20,-5.71428 l -3.21428,-2.5 c -6.6004,-0.73532 -13.34465,-1.01032 -18.31703,-6.95531 -3.75214,0.6055 -6.57832,-0.64094 -8.64726,-3.40184 l -6.21297,-1.19285 -12.53619,2.49506 c -3.50938,6.36959 -7.77504,11.69931 -12.63082,16.2176 l -7.37002,13.19448 -10.08928,13.48214 c 0,0 -6.67058,9.42136 -9.55358,10.44643 -4.52001,1.60712 -9.52457,3.05401 -16.07142,3.21429 -19.2919,0.47231 -22.13423,-16.48187 -21.07143,-15.71429 0,0 -0.34193,-3.39647 2.5,-14.28571 3.23296,-12.38754 10.4529,-23.60941 10.4529,-23.60941 -44.15175,9.08985 -77.37404,21.16045 -132.45737,27.26895 0,0 -17.00067,2.12587 -26.97338,-7.66798 -1.01179,-0.99363 -0.26702,2.13293 -0.55328,1.10199 -10.30881,3.29477 -51.51778,15.9099 -51.51778,15.9099 -3.7553,1.01376 -32.01167,6.63416 -43.43656,-11.86929 1.90925,-3.31304 10.50578,-6.36073 19.1929,-8.33376 24.65769,-5.6003 62.26588,-14.1136 62.26588,-14.1136 l -3.67703,-9.62499 14.46571,-3.09096 -8.55921,-11.4849 c -2.08946,-2.75029 -2.42646,-6.96095 -0.47693,-13.07706 3.45968,-10.53931 11.49192,-18.79233 18.81409,-27.40039 l 40.4061,-50.50763 c 17.31336,-18.89206 32.86422,-38.53947 54.54824,-55.55839 l 29.29442,-14.14213 15.15229,-10.10153 70.47608,-37.14105 c 15.85547,-8.83285 25.61342,-17.66571 47.71177,-26.498558 8.12691,-4.196501 48.3126,9.008428 62.3369,10.844918 17.46515,2.28707 27.88507,3.86537 38.99904,6.30423 11.11398,2.43886 111.17808,26.13322 111.17808,26.13322 z"
           id="path3829"
           style="color:#000000;fill:#fcf7e8;fill-opacity:1;fill-rule:nonzero;stroke:#fcf7e8;stroke-width:1px;stroke-linecap:butt;stroke-linejoin:miter;stroke-miterlimit:4;stroke-opacity:1;stroke-dasharray:none;stroke-dashoffset:0;marker:none;visibility:visible;display:inline;overflow:visible;enable-background:accumulate" />
        <path
           d="m 348.21429,248.79075 c 0,0 -3.77837,17.51407 -2.5,23.57143 1.27837,6.05736 1.27837,6.05736 1.27837,6.05736 l -0.92123,9.29978 4.74742,13.42342 -4.58906,7.99971 -93.22748,19.33063 c 0,0 55.38297,-48.48297 58.44682,-49.66542 3.89269,-1.50233 17.74226,-14.29191 20.51516,-19.12405 8.98392,-2.32216 6.24004,-4.94451 8.92857,-6.96429 2.68337,-2.0159 7.32143,-3.92857 7.32143,-3.92857 z"
           id="path3887"
           style="color:#000000;fill:#fcf7e8;fill-opacity:1;fill-rule:nonzero;stroke:#fcf7e8;stroke-width:1px;stroke-linecap:butt;stroke-linejoin:miter;stroke-miterlimit:4;stroke-opacity:1;stroke-dasharray:none;stroke-dashoffset:0;marker:none;visibility:visible;display:inline;overflow:visible;enable-background:accumulate" />
        <path
           d="m 418.57143,236.29075 -2.5,12.14286 -2.14286,6.07143 0,6.78571 8.21618,-1.33567 c 6.15356,-10.3852 13.27497,-19.94081 21.78382,-28.30718 -6.02744,-2.81258 -11.47249,-3.50787 -11.47249,-3.50787 -1.53395,0.8947 -2.40406,2.32048 -4.68822,2.61501 -0.65789,-0.51691 -2.59248,4.35972 -9.19643,5.53571 z"
           id="path3943"
           style="color:#000000;fill:#fcf7e8;fill-opacity:1;fill-rule:nonzero;stroke:#fcf7e8;stroke-width:1px;stroke-linecap:butt;stroke-linejoin:miter;stroke-miterlimit:4;stroke-opacity:1;stroke-dasharray:none;stroke-dashoffset:0;marker:none;visibility:visible;display:inline;overflow:visible;enable-background:accumulate" />
      </g>
    </g>
    <g
       id="layer3"
       style="display:inline">
      <path
         d="m 346.22979,309.14245 -96.21703,19.95051"
         id="path3048"
         style="fill:none;stroke:#000000;stroke-width:1.5;stroke-linecap:butt;stroke-linejoin:miter;stroke-miterlimit:4;stroke-opacity:1;stroke-dasharray:none" />
      <path
         d="m 222.4861,334.39626 -29.54696,6.31345 c 2.27284,9.59645 14.89975,36.87057 44.69925,34.59773 29.7995,-2.27284 135.61298,-28.03173 135.61298,-28.03173"
         id="path3050"
         style="fill:none;stroke:#000000;stroke-width:1.5;stroke-linecap:butt;stroke-linejoin:miter;stroke-miterlimit:4;stroke-opacity:1;stroke-dasharray:none" />
      <path
         d="M 247.99245,338.68941 134.35029,364.4483 c 0,0 -19.1929,4.54568 -19.1929,8.33376 6.06092,9.09137 23.99112,17.42513 43.43656,11.86929 19.44544,-5.55584 51.51778,-15.9099 51.51778,-15.9099 1.26269,-2.27285 1.26269,-3.78808 3.03046,-4.54569 4.54568,-1.01015 42.4264,-9.09137 46.46701,-7.32361 4.04061,1.76777 3.283,-3.28299 3.283,-3.28299 z"
         id="path3052"
         style="fill:none;stroke:#000000;stroke-width:1.5;stroke-linecap:butt;stroke-linejoin:miter;stroke-miterlimit:4;stroke-opacity:1;stroke-dasharray:none" />
      <path
         d="m 204.55589,353.33662 c 0,0 26.5165,-5.3033 29.29442,-6.31345 2.77792,-1.01016 6.566,-1.01016 7.82869,2.0203 1.26269,3.03046 -2.27285,7.32361 -4.79823,7.32361 -2.52538,0 -28.78935,5.05076 -28.78935,5.05076 l -3.78807,-1.76777 -11.61675,2.27285 -1.01015,3.03045 c 0,0 -7.07107,1.51523 -9.09138,2.27285 -2.0203,0.75761 -6.31345,-5.80838 -4.04061,-6.81853 2.27285,-1.01015 11.11168,-3.03046 11.11168,-3.03046 0,0 0.50508,2.02031 2.52538,1.51523 2.02031,-0.50508 8.33376,-1.26269 9.59645,-2.27284 1.26269,-1.01016 2.77792,-3.283 2.77792,-3.283 z"
         id="path3054"
         style="fill:none;stroke:#000000;stroke-width:1px;stroke-linecap:butt;stroke-linejoin:miter;stroke-opacity:1" />
      <path
         d="m 150.76045,310.79335 c 0,0 -41.4175,12.39605 -53.785806,16.22058 -12.368309,3.82453 -32.282953,-1.99152 -38.423441,-11.46701"
         transform="translate(58.21875,55.5)"
         id="path3798"
         style="fill:none;stroke:#000000;stroke-width:1px;stroke-linecap:butt;stroke-linejoin:miter;stroke-opacity:1" />
    </g>
    <g
       id="layer5"
       style="display:inline">
      <path
         d="m 285,234.50504 c 4.64286,13.57143 4.28572,17.5 10.35714,23.21428 6.42329,6.04545 11.78572,11.42858 17.85715,10 6.07142,-1.42857 14.28571,-3.21428 14.28571,-3.21428"
         id="path3009"
         style="fill:none;stroke:#000000;stroke-width:1;stroke-linecap:round;stroke-linejoin:miter;stroke-miterlimit:4;stroke-opacity:1;stroke-dasharray:none" />
      <path
         d="m 363.57143,177.36218 c 3.57143,8.21429 17.14286,25 20.35714,27.85714 3.21429,2.85715 20.71429,15.71429 22.85714,16.78572 2.14286,1.07143 16.78572,3.92858 18.21429,4.64286 0.6815,0.34075 3.15113,0.76278 5.8967,1.22731"
         id="path3826"
         style="fill:none;stroke:#000000;stroke-width:1;stroke-linecap:round;stroke-linejoin:miter;stroke-miterlimit:4;stroke-opacity:1;stroke-dasharray:none" />
      <path
         d="m 305.35714,223.79075 c 1.07143,2.5 5,11.07143 7.5,13.21429 2.5,2.14286 9.64286,8.57143 11.07143,8.92857 1.42857,0.35714 2.85714,2.14286 2.85714,2.14286"
         id="path3013"
         style="fill:none;stroke:#000000;stroke-width:1;stroke-linecap:round;stroke-linejoin:miter;stroke-miterlimit:4;stroke-opacity:1;stroke-dasharray:none" />
      <path
         d="m 416.07143,137.36218 c -0.71429,11.42857 2.85714,25 5.35714,30 2.5,5 10.71429,17.5 14.64286,22.5 3.92857,5 14.28571,15.35714 16.07143,18.92857 1.78571,3.57143 8.57143,16.78572 8.57143,16.78572 l 3.57143,4.64285"
         id="path3015"
         style="fill:none;stroke:#000000;stroke-width:1;stroke-linecap:round;stroke-linejoin:miter;stroke-miterlimit:4;stroke-opacity:1;stroke-dasharray:none" />
      <path
         d="m 405.71429,164.50504 c 1.07142,4.64286 6.42857,18.21428 12.85714,24.64286 6.42857,6.42857 16.78571,15 16.78571,15"
         id="path3017"
         style="fill:none;stroke:#000000;stroke-width:1;stroke-linecap:round;stroke-linejoin:miter;stroke-miterlimit:4;stroke-opacity:1;stroke-dasharray:none" />
      <path
         d="m 426.07143,204.1479 c 6.42857,3.57142 8.57143,5.35714 11.78571,7.5 3.21429,2.14285 15,13.57142 16.42858,14.64285 1.42857,1.07143 7.85714,8.57143 7.85714,8.57143"
         id="path3019"
         style="fill:none;stroke:#000000;stroke-width:1;stroke-linecap:round;stroke-linejoin:miter;stroke-miterlimit:4;stroke-opacity:1;stroke-dasharray:none" />
      <path
         d="m 459.28572,124.86218 c -1.07143,3.92857 -5.71429,20 -3.92858,26.07143 1.78572,6.07143 7.14286,37.85714 8.21429,39.28571 1.07143,1.42858 8.57143,23.21429 8.57143,23.21429"
         id="path3021"
         style="fill:none;stroke:#000000;stroke-width:1;stroke-linecap:round;stroke-linejoin:miter;stroke-miterlimit:4;stroke-opacity:1;stroke-dasharray:none" />
      <path
         d="m 351.42857,274.1479 c 2.5,0.71428 8.21429,0.71428 11.07143,-0.35715 2.85714,-1.07143 7.85714,-0.35714 9.64286,0 1.78571,0.35715 10,1.78572 10,1.78572"
         id="path3037"
         style="fill:none;stroke:#000000;stroke-width:1;stroke-linecap:round;stroke-linejoin:miter;stroke-miterlimit:4;stroke-opacity:1;stroke-dasharray:none" />
      <g
         id="g3800"
         style="stroke-width:2.5;stroke-miterlimit:4;stroke-dasharray:none">
        <path
           d="m 687.91388,135.14367 c 0,0 -119.198,-29.29442 -133.34013,-30.30457 -14.14214,-1.01016 -25.25382,-4.04062 -37.37565,-6.06092 -12.12183,-2.020305 -32.44068,-9.977719 -42.4264,-7.071068 -19.80567,5.765049 -36.60009,21.447798 -47.71177,26.498558 -11.11168,5.05077 -41.42676,21.98876 -41.42676,21.98876 0,0 -25.00871,12.12183 -29.04932,15.15229 -4.04061,3.03046 -15.15229,10.10153 -15.15229,10.10153 0,0 -20.43814,8.06988 -29.29442,14.14213 -13.43836,9.21393 -52.40978,51.57905 -54.54824,55.55839 -2.17139,4.04061 -35.06716,44.44672 -40.4061,50.50763 -5.66572,6.43188 -17.29886,21.33947 -18.81409,27.40039 -1.22499,4.89995 -0.77311,10.39849 0.47693,13.07706 1.25,2.67857 7.77419,10.43111 7.77419,10.43111 0,0 14.38135,-2.11222 16.44126,-2.33413 2.65337,2.2357 22.6532,-2.40436 23.18891,-3.11865 0.53571,-0.71428 6.60714,-3.21428 7.67857,-4.10714 1.07143,-0.89286 38.75,-33.03572 42.14286,-35.53572 3.39286,-2.5 20,-16.96428 23.03571,-18.39285 3.03572,-1.42857 9.28572,-7.85715 10.35715,-9.10715 1.07142,-1.25 2.5,-4.28571 2.5,-4.28571"
           id="path2997"
           style="fill:none;stroke:#000000;stroke-width:2.5;stroke-linecap:round;stroke-linejoin:miter;stroke-miterlimit:4;stroke-opacity:1;stroke-dasharray:none" />
        <path
           d="m 340.89286,252.71932 c -1.33929,2.41072 -2.05357,4.01786 -3.75,4.64286 -1.69643,0.625 -0.77604,1.58151 -5.17857,2.32143"
           id="path3844"
           style="fill:none;stroke:#000000;stroke-width:2.5;stroke-linecap:round;stroke-linejoin:miter;stroke-miterlimit:4;stroke-opacity:1;stroke-dasharray:none" />
        <path
           d="m 331.96429,259.68361 c -5.3125,0.89286 -12.32143,-3.125 -12.32143,-3.125"
           id="path2999"
           style="fill:none;stroke:#000000;stroke-width:1;stroke-linecap:round;stroke-linejoin:miter;stroke-miterlimit:4;stroke-opacity:1;stroke-dasharray:none" />
        <path
           d="m 351.33929,247.63004 c 0,0 -5.26786,3.25892 -6.875,3.97321 -1.60715,0.71429 -2.80574,0.62899 -3.92857,1.02679"
           id="path3840"
           style="fill:none;stroke:#000000;stroke-width:2.5;stroke-linecap:round;stroke-linejoin:miter;stroke-miterlimit:4;stroke-opacity:1;stroke-dasharray:none" />
        <path
           d="m 340.53572,252.63004 c -0.75602,0.26785 -5.73222,2.00889 -8.83929,0.0892"
           id="path3001"
           style="fill:none;stroke:#000000;stroke-width:1;stroke-linecap:round;stroke-linejoin:miter;stroke-miterlimit:4;stroke-opacity:1;stroke-dasharray:none" />
        <path
           d="m 333.39286,248.43361 c 0,0 5.89286,1.51786 8.21428,0.98214 2.32143,-0.53571 8.125,-1.07143 9.73215,-1.78571"
           id="path3836"
           style="fill:none;stroke:#000000;stroke-width:1;stroke-linecap:round;stroke-linejoin:miter;stroke-miterlimit:4;stroke-opacity:1;stroke-dasharray:none" />
        <path
           d="M 351.33929,247.63004 C 352.94643,246.91575 389.375,230.57647 393.75,227.80861"
           id="path3003"
           style="fill:none;stroke:#000000;stroke-width:2.5;stroke-linecap:round;stroke-linejoin:miter;stroke-miterlimit:4;stroke-opacity:1;stroke-dasharray:none" />
        <path
           d="m 392.14286,226.11218 c 3.39286,2.4678 14.84342,5.98565 17.49999,6.47721 2.07224,0.38343 7.48405,1.30403 12.05358,0.0126 3.66071,-2.20414 6.07143,-1.90679 6.07143,-1.90679"
           id="path3005"
           style="fill:none;stroke:#000000;stroke-width:2.5;stroke-linecap:round;stroke-linejoin:miter;stroke-miterlimit:4;stroke-opacity:1;stroke-dasharray:none" />
        <path
           d="m 425.35714,230.39789 c 0.98215,-0.0893 2.85715,0.53572 3.83929,-0.0893 0.98214,-0.625 3.75,-2.5 3.75,-2.5"
           id="path3007"
           style="fill:none;stroke:#000000;stroke-width:2.5;stroke-linecap:round;stroke-linejoin:miter;stroke-miterlimit:4;stroke-opacity:1;stroke-dasharray:none" />
        <path
           d="m 430.8967,227.87521 c 3.00969,0.50923 6.35097,1.06953 8.03187,1.62983 3.21429,1.07143 12.14286,3.57143 13.57143,4.28571 1.42857,0.71429 6.42857,3.21429 6.42857,3.21429"
           id="path3011"
           style="fill:none;stroke:#000000;stroke-width:2.5;stroke-linecap:round;stroke-linejoin:miter;stroke-miterlimit:4;stroke-opacity:1;stroke-dasharray:none" />
        <path
           d="m 477.85714,155.57647 c 0,0 -1.07142,13.21428 0,16.07143 1.07143,2.85714 3.57143,7.85714 2.5,10 -1.07142,2.14285 -3.92857,16.78571 -3.92857,19.64285 0,2.85715 -1.78571,12.14286 -2.85714,13.92857 -1.07143,1.78572 -10.71429,18.21429 -11.78571,19.64286 -1.07143,1.42857 -17.85715,15 -20.35715,16.78572 -2.5,1.78571 -10.71428,5 -15.71428,7.14285 -5,2.14286 -14.28572,2.85715 -17.5,3.92857 -3.21429,1.07143 -12.14286,3.92858 -15.35715,6.42858 -3.21428,2.5 -11.42857,6.07142 -12.85714,7.14285 -1.42857,1.07143 -16.42857,8.92857 -18.21429,10.71429 -1.78571,1.78571 -11.78571,15 -13.57142,17.85714 -1.78572,2.85714 -4.28572,14.28572 -2.14286,19.28572 2.14286,5 7.5,13.21428 11.78571,16.78571 4.28572,3.57143 19.28572,8.21429 23.57143,8.21429 4.28572,0 21.07143,0 25.35714,-0.35715 4.28572,-0.35714 12.5,-1.42857 16.07143,-1.78571 3.57143,-0.35714 12.22766,-2.20785 14.72766,-2.56499 2.5,-0.35715 9.18297,-1.91199 9.18297,-1.91199"
           id="path3023"
           style="fill:none;stroke:#000000;stroke-width:2.5;stroke-linecap:round;stroke-linejoin:miter;stroke-miterlimit:4;stroke-opacity:1;stroke-dasharray:none" />
        <path
           d="m 438.57143,324.1479 c -0.35714,3.57142 0,10.35714 1.78571,12.14285 1.78572,1.78572 4.28572,5 5.71429,6.07143"
           id="path3827"
           style="fill:none;stroke:#000000;stroke-width:1;stroke-linecap:round;stroke-linejoin:miter;stroke-miterlimit:4;stroke-opacity:1;stroke-dasharray:none" />
        <path
           d="m 446.07143,342.36218 c 1.42857,1.07143 6.60714,1.42857 6.60714,1.42857"
           id="path3025"
           style="fill:none;stroke:#000000;stroke-width:2.5;stroke-linecap:round;stroke-linejoin:miter;stroke-miterlimit:4;stroke-opacity:1;stroke-dasharray:none" />
        <path
           d="m 448.57143,323.07647 c -0.35714,1.78571 0.35714,15 1.42857,16.78571 1.07143,1.78572 2.67857,3.92857 2.67857,3.92857"
           id="path3822"
           style="fill:none;stroke:#000000;stroke-width:1;stroke-linecap:round;stroke-linejoin:miter;stroke-miterlimit:4;stroke-opacity:1;stroke-dasharray:none" />
        <path
           d="m 452.67857,343.79075 c 1.7864,1.5631 5.26151,4.11426 8.64726,3.40184 2.23782,-0.47088 3.4956,-2.15184 3.4956,-2.15184"
           id="path3027"
           style="fill:none;stroke:#000000;stroke-width:2.5;stroke-linecap:round;stroke-linejoin:miter;stroke-miterlimit:4;stroke-opacity:1;stroke-dasharray:none" />
        <path
           d="m 461.36358,347.34051 c 1.78572,1.42858 6.07329,4.8106 8.63642,5.73596 2.37532,0.85755 9.64286,1.07143 9.64286,1.07143 0,0 0.71428,1.07142 3.21428,2.5 2.5,1.42857 5,3.92857 7.85715,4.64285 2.85714,0.71429 6.07143,2.14286 8.21428,0.71429 2.14286,-1.42857 7.5,-2.14286 7.5,-2.14286"
           id="path3029"
           style="fill:none;stroke:#000000;stroke-width:2.5;stroke-linecap:round;stroke-linejoin:miter;stroke-miterlimit:4;stroke-opacity:1;stroke-dasharray:none" />
        <path
           d="m 502.85714,362.36218 c 2.14286,1.07143 8.92858,3.92857 12.85715,5.71429 3.92857,1.78571 21.07143,9.64285 24.28571,10 3.21429,0.35714 16.98418,3.36692 22.5,3.92857 6.28043,0.63951 16.67913,3.63105 24.17913,3.63105 7.5,0 19.08302,1.77948 24.74944,1.72609 5.64668,-0.0532 24.89027,0.32069 28.21429,0.35714 3.05124,0.0335 16.43958,-1.28802 16.43958,-1.28802 0,0 20.19605,-2.02201 31.20328,-2.44473"
           id="path3031"
           style="fill:none;stroke:#000000;stroke-width:2.5;stroke-linecap:round;stroke-linejoin:miter;stroke-miterlimit:4;stroke-opacity:1;stroke-dasharray:none" />
        <path
           d="m 347.97593,249.93994 c -1.07143,3.92857 -1.54736,8.13653 -1.54736,9.5651 0,1.42857 -0.71428,10 -0.71428,12.85714 0,2.85714 0.0958,4.35875 1.42857,5.71429"
           id="path3832"
           style="fill:none;stroke:#000000;stroke-width:2.5;stroke-linecap:round;stroke-linejoin:miter;stroke-miterlimit:4;stroke-opacity:1;stroke-dasharray:none" />
        <path
           d="m 347.14286,278.07647 c 1.11986,1.13901 4.35658,0.92296 5.71428,0.35714 2.65781,-1.10765 5.71429,-0.35714 5.71429,-0.35714"
           id="path3033"
           style="fill:none;stroke:#000000;stroke-width:1;stroke-linecap:round;stroke-linejoin:miter;stroke-miterlimit:4;stroke-opacity:1;stroke-dasharray:none" />
        <path
           d="m 347.14286,278.07647 c -1.78572,3.92857 -1.42857,8.21428 -1.07143,9.64285 0.35714,1.42858 2.85714,9.64286 2.85714,9.64286 l 2.14286,4.28572"
           id="path3035"
           style="fill:none;stroke:#000000;stroke-width:2.5;stroke-linecap:round;stroke-linejoin:miter;stroke-miterlimit:4;stroke-opacity:1;stroke-dasharray:none" />
        <path
           d="m 419.23274,233.09273 c 0,1.78572 -3.16131,13.91231 -3.16131,15.34088 0,1.42857 -2.14286,6.07143 -2.14286,6.07143 l 0,6.78571"
           id="path3039"
           style="fill:none;stroke:#000000;stroke-width:2.5;stroke-linecap:round;stroke-linejoin:miter;stroke-miterlimit:4;stroke-opacity:1;stroke-dasharray:none" />
        <path
           d="m 443.92857,231.6479 c 0,0 -7.5,7.5 -8.92857,9.64285 -1.42857,2.14286 -7.85714,9.64286 -8.57143,11.07143 -0.71428,1.42857 -4.64286,8.21429 -4.64286,8.21429"
           id="path3041"
           style="fill:none;stroke:#000000;stroke-width:2.5;stroke-linecap:round;stroke-linejoin:miter;stroke-miterlimit:4;stroke-opacity:1;stroke-dasharray:none" />
        <path
           d="m 378.21429,350.21932 c 2.85714,2.5 11.07142,5.71429 12.85714,6.07143 1.78571,0.35715 7.14286,0.35715 10,-0.71428 2.85714,-1.07143 4.64286,-2.14286 6.42857,-3.21429 1.78571,-1.07143 4.28571,-3.57143 4.28571,-3.57143"
           id="path3043"
           style="fill:none;stroke:#000000;stroke-width:2.5;stroke-linecap:round;stroke-linejoin:miter;stroke-miterlimit:4;stroke-opacity:1;stroke-dasharray:none" />
        <path
           d="m 370.09576,348.03849 c 0,0 -4.02433,8.25226 -5.4529,11.82369 -1.42857,3.57143 -3.57143,8.92857 -5,11.78572 -1.42857,2.85714 -2.5,12.14285 -2.5,14.28571 0,2.14286 2.5,8.92857 5.35714,10.71429 2.85714,1.78571 10,6.07142 15.71429,5 5.71428,-1.07143 13.21428,-1.78572 16.07142,-3.21429 2.85715,-1.42857 8.12501,-7.94643 9.55358,-10.44643 1.42857,-2.5 7.23214,-10.625 10.08928,-13.48214 2.85714,-2.85714 5.5843,-11.05162 7.37002,-13.19448 1.78571,-2.14286 7.70549,-8.06264 8.06263,-9.49121 0.35715,-1.42857 4.5853,-6.74796 4.5853,-6.74796"
           id="path3045"
           style="fill:none;stroke:#000000;stroke-width:2.5;stroke-linecap:round;stroke-linejoin:miter;stroke-miterlimit:4;stroke-opacity:1;stroke-dasharray:none" />
      </g>
      <path
         d="m 393.8828,281.12148 c -2.2066,14.92312 -3.92334,18.08579 -2.2438,27.16942 1.77688,9.61009 3.13277,17.92436 7.52219,20.81598 4.38942,2.89161 10.27225,6.93127 10.27225,6.93127"
         id="path3009-1"
         style="fill:none;stroke:#000000;stroke-width:1;stroke-linecap:round;stroke-linejoin:miter;stroke-miterlimit:4;stroke-opacity:1;stroke-dasharray:none;display:inline" />
    </g>
  </g>
</svg>
